<svg xmlns="http://www.w3.org/2000/svg" viewBox="0 0 512 512" fill="none">
  <rect width="512" height="512" rx="96" fill="#0c0a09"/>
  <rect x="64" y="64" width="384" height="384" rx="24" fill="#1c1917" stroke="#ea580c" stroke-width="8"/>
  <!-- Grid -->
  <g stroke="#44403c" stroke-width="2">
    <line x1="128" y1="128" x2="128" y2="384"/>
    <line x1="192" y1="128" x2="192" y2="384"/>
    <line x1="256" y1="128" x2="256" y2="384"/>
    <line x1="320" y1="128" x2="320" y2="384"/>
    <line x1="128" y1="192" x2="384" y2="192"/>
    <line x1="128" y1="256" x2="384" y2="256"/>
    <line x1="128" y1="320" x2="384" y2="320"/>
  </g>
  <!-- Drawing: walls -->
  <rect x="148" y="168" width="140" height="100" rx="4" fill="none" stroke="#f97316" stroke-width="10"/>
  <line x1="218" y1="268" x2="218" y2="340" stroke="#f97316" stroke-width="10"/>
  <!-- Dimension -->
  <line x1="128" y1="148" x2="288" y2="148" stroke="#22d3ee" stroke-width="6"/>
  <line x1="128" y1="138" x2="128" y2="158" stroke="#22d3ee" stroke-width="6"/>
  <line x1="288" y1="138" x2="288" y2="158" stroke="#22d3ee" stroke-width="6"/>
  <!-- Compass -->
  <circle cx="360" cy="340" r="48" fill="#292524" stroke="#ea580c" stroke-width="6"/>
  <polygon points="360,300 372,360 360,348 348,360" fill="#ea580c"/>
  <text x="360" y="410" text-anchor="middle" fill="#a8a29e" font-family="system-ui,sans-serif" font-size="28" font-weight="700">CAD</text>
</svg>
